<?xml version="1.0" encoding="UTF-8" standalone="no"?>
<!-- Created with Inkscape (http://www.inkscape.org/) -->

<svg
   xmlns:dc="http://purl.org/dc/elements/1.1/"
   xmlns:cc="http://creativecommons.org/ns#"
   xmlns:rdf="http://www.w3.org/1999/02/22-rdf-syntax-ns#"
   xmlns:svg="http://www.w3.org/2000/svg"
   xmlns="http://www.w3.org/2000/svg"
   xmlns:sodipodi="http://sodipodi.sourceforge.net/DTD/sodipodi-0.dtd"
   xmlns:inkscape="http://www.inkscape.org/namespaces/inkscape"
   width="12cm"
   height="4cm"
   viewBox="0 0 120 40"
   version="1.1"
   id="svg8"
   inkscape:version="0.92.3 (2405546, 2018-03-11)"
   sodipodi:docname="logo.svg">
  <defs
     id="defs2">
    <clipPath
       id="clipPath45"
       clipPathUnits="userSpaceOnUse">
      <path
         inkscape:connector-curvature="0"
         id="path43"
         d="M 0,792 H 612 V 0 H 0 Z" />
    </clipPath>
    <clipPath
       id="clipPath131"
       clipPathUnits="userSpaceOnUse">
      <path
         inkscape:connector-curvature="0"
         id="path129"
         d="M 248.955,505.228 H 358.67 v 78.195 H 248.955 Z" />
    </clipPath>
    <clipPath
       id="clipPath151"
       clipPathUnits="userSpaceOnUse">
      <path
         inkscape:connector-curvature="0"
         id="path149"
         d="M 0,792 H 612 V 0 H 0 Z" />
    </clipPath>
    <clipPath
       id="clipPath237"
       clipPathUnits="userSpaceOnUse">
      <path
         inkscape:connector-curvature="0"
         id="path235"
         d="M 248.955,364.227 H 358.67 v 78.195 H 248.955 Z" />
    </clipPath>
    <clipPath
       id="clipPath257"
       clipPathUnits="userSpaceOnUse">
      <path
         inkscape:connector-curvature="0"
         id="path255"
         d="M 0,792 H 612 V 0 H 0 Z" />
    </clipPath>
  </defs>
  <sodipodi:namedview
     id="base"
     pagecolor="#ffffff"
     bordercolor="#666666"
     borderopacity="1.0"
     inkscape:pageopacity="0.0"
     inkscape:pageshadow="2"
     inkscape:zoom="1.4"
     inkscape:cx="335.47737"
     inkscape:cy="113.56103"
     inkscape:document-units="mm"
     inkscape:current-layer="layer1"
     showgrid="false"
     units="cm"
     inkscape:window-width="1920"
     inkscape:window-height="1042"
     inkscape:window-x="0"
     inkscape:window-y="18"
     inkscape:window-maximized="0" />
  <metadata
     id="metadata5">
    <rdf:RDF>
      <cc:Work
         rdf:about="">
        <dc:format>image/svg+xml</dc:format>
        <dc:type
           rdf:resource="http://purl.org/dc/dcmitype/StillImage" />
        <dc:title></dc:title>
      </cc:Work>
    </rdf:RDF>
  </metadata>
  <g
     inkscape:label="Layer 1"
     inkscape:groupmode="layer"
     id="layer1"
     transform="translate(0,-257)">
    <g
       id="g683"
       transform="translate(-41.487414,176.62948)">
      <g
         transform="matrix(0.35277777,0,0,-0.35277777,-6.7674267,285.6594)"
         id="g39">
        <g
           clip-path="url(#clipPath45)"
           id="g41">
          <g
             transform="translate(163.9614,532.0342)"
             id="g47">
            <path
               inkscape:connector-curvature="0"
               id="path49"
               style="fill:#fff;fill-opacity:1;fill-rule:nonzero;stroke:none"
               d="M 0,0 0.079,3.871 H 8.848 V 0 L 6.873,-0.079 v -18.96 c 0,-2.687 -0.672,-4.768 -2.015,-6.241 -1.342,-1.475 -3,-2.212 -4.969,-2.212 -2.034,0 -3.681,0.763 -4.945,2.291 -1.264,1.526 -1.896,3.606 -1.896,6.241 v 42.344 c 0,2.58 0.197,4.686 0.593,6.32 0.394,1.632 0.908,2.923 1.54,3.871 0.631,0.947 1.33,1.606 2.093,1.975 0.763,0.368 1.54,0.553 2.33,0.553 0.475,0 0.949,-0.107 1.422,-0.316 0.422,-0.158 0.856,-0.409 1.304,-0.751 0.447,-0.343 0.83,-0.804 1.146,-1.383 l 0.869,1.344 h 2.37 V 13.982 H 2.606 v 13.667 c 0,2.264 -0.58,3.398 -1.737,3.398 -0.474,0 -0.909,-0.304 -1.304,-0.908 -0.395,-0.607 -0.592,-1.2 -0.592,-1.779 v -48.821 c 0,-0.896 0.14,-1.501 0.423,-1.817 0.282,-0.317 0.536,-0.474 0.762,-0.474 0.263,0 0.566,0.197 0.908,0.592 0.342,0.395 0.514,0.855 0.514,1.383 v 20.698 z" />
          </g>
          <g
             transform="translate(193.1909,540.4873)"
             id="g51">
            <path
               inkscape:connector-curvature="0"
               id="path53"
               style="fill:#fff;fill-opacity:1;fill-rule:nonzero;stroke:none"
               d="m 0,0 v 1.975 3.554 c 0,1.369 0.013,2.831 0.04,4.385 0.025,1.553 0.039,3.054 0.039,4.503 v 3.832 2.369 c 0,0.527 -0.105,0.975 -0.315,1.344 -0.159,0.315 -0.41,0.578 -0.751,0.79 -0.343,0.21 -0.804,0.236 -1.383,0.079 V -2.213 c 0.579,0.106 1.027,0.277 1.344,0.514 0.315,0.237 0.552,0.486 0.711,0.751 C -0.105,-0.686 0,-0.369 0,0 m 6.162,-30.494 c 0,-0.107 0.052,-0.237 0.158,-0.396 0.21,-0.315 0.632,-0.501 1.264,-0.552 v -4.345 H 1.817 c -0.421,0.104 -0.738,0.46 -0.948,1.066 -0.211,0.605 -0.369,1.277 -0.473,2.015 -0.159,0.842 -0.238,1.764 -0.238,2.765 v 4.976 c 0,2.001 0.013,4.016 0.04,6.044 0.026,2.026 0.039,3.858 0.039,5.49 v 3.398 c 0,1.843 -0.632,2.948 -1.896,3.317 h -0.316 v -24.095 l 0.949,-0.394 v -4.74 h -8.453 l -0.159,4.74 1.343,0.315 v 53.642 l -1.264,0.079 v 4.581 c 0.421,0.053 1.039,0.106 1.857,0.158 0.815,0.052 1.671,0.079 2.567,0.079 h 3.239 c 1.527,0.052 2.805,-0.171 3.832,-0.67 1.027,-0.502 1.856,-1.186 2.488,-2.055 0.633,-0.869 1.079,-1.857 1.344,-2.962 0.262,-1.107 0.394,-2.212 0.394,-3.318 v -3.831 c 0,-1.45 0.013,-2.872 0.04,-4.267 C 6.228,9.15 6.241,7.899 6.241,6.794 V 4.503 C 6.241,2.237 5.926,0.395 5.293,-1.027 4.661,-2.449 3.897,-3.556 3.002,-4.346 3.739,-5.03 4.477,-6.031 5.214,-7.348 c 0.737,-1.316 1.106,-3.081 1.106,-5.293 0,-1.737 -0.013,-3.621 -0.039,-5.648 -0.027,-2.028 -0.04,-3.91 -0.04,-5.649 0,-1.738 -0.013,-3.226 -0.039,-4.463 -0.027,-1.238 -0.04,-1.935 -0.04,-2.093" />
          </g>
          <g
             transform="translate(220.2075,521.9219)"
             id="g55">
            <path
               inkscape:connector-curvature="0"
               id="path57"
               style="fill:#fff;fill-opacity:1;fill-rule:nonzero;stroke:none"
               d="M 0,0 -0.711,19.829 H -1.105 L -2.527,0 Z m 8.138,-12.798 v -4.582 h -9.402 v 4.582 h 1.66 l -0.238,8.374 h -3.002 l -0.552,-8.374 h 1.421 l -0.079,-4.582 h -7.505 l 0.08,4.582 h 1.659 l 4.582,59.013 h 5.766 l 3.871,-59.013 z" />
          </g>
          <g
             transform="translate(245.7251,560.2373)"
             id="g59">
            <path
               inkscape:connector-curvature="0"
               id="path61"
               style="fill:#fff;fill-opacity:1;fill-rule:nonzero;stroke:none"
               d="M 0,0 C 0,1.157 -0.222,1.868 -0.665,2.133 -1.109,2.396 -1.414,2.527 -1.58,2.527 -1.738,2.527 -2.042,2.382 -2.488,2.093 -2.937,1.803 -3.16,1.315 -3.16,0.632 V -4.74 c 0,-1.791 0.204,-3.595 0.611,-5.412 0.407,-1.817 0.895,-3.661 1.461,-5.53 0.567,-1.87 1.167,-3.726 1.799,-5.569 0.632,-1.845 1.211,-3.687 1.738,-5.53 0.526,-1.845 0.935,-3.45 1.225,-4.82 0.289,-1.37 0.514,-2.606 0.671,-3.712 0.158,-1.106 0.263,-2.121 0.316,-3.041 0.052,-0.923 0.105,-1.832 0.158,-2.726 v -5.689 c 0,-1.37 -0.172,-2.606 -0.513,-3.712 -0.343,-1.107 -0.778,-2.042 -1.304,-2.805 -0.527,-0.764 -1.106,-1.357 -1.738,-1.777 -0.632,-0.422 -1.264,-0.632 -1.896,-0.632 -0.473,0 -0.922,0.051 -1.343,0.158 -0.369,0.104 -0.751,0.236 -1.145,0.394 -0.396,0.159 -0.725,0.396 -0.988,0.711 l -0.711,-0.79 -3.476,-0.079 0.079,21.409 4.266,0.238 v -10.903 -1.501 c 0,-0.738 0.054,-1.474 0.162,-2.212 0.107,-0.738 0.295,-1.395 0.564,-1.974 0.269,-0.58 0.672,-0.869 1.21,-0.869 0.539,0 0.943,0.262 1.211,0.79 0.27,0.525 0.444,1.197 0.524,2.014 0.081,0.816 0.107,1.711 0.082,2.686 -0.028,0.974 -0.04,1.883 -0.04,2.726 0,1.738 -0.349,4.041 -1.048,6.912 -0.698,2.87 -1.693,6.596 -2.981,11.178 -0.631,2.264 -1.199,4.306 -1.699,6.123 -0.501,1.817 -0.908,3.489 -1.223,5.017 -0.317,1.526 -0.554,2.962 -0.712,4.305 -0.158,1.343 -0.237,2.725 -0.237,4.147 v 0.514 0.632 c 0,0.289 0.012,0.723 0.039,1.303 0.027,0.579 0.066,1.422 0.119,2.529 0.052,1.526 0.277,2.816 0.671,3.871 0.396,1.053 0.87,1.895 1.422,2.527 0.554,0.633 1.127,1.079 1.723,1.344 0.595,0.263 1.113,0.394 1.557,0.394 C -2.211,7.847 -1.842,7.768 -1.501,7.662 -1.249,7.557 -0.958,7.412 -0.63,7.229 -0.301,7.043 0.041,6.74 0.396,6.319 L 0.948,7.505 3.871,7.426 V -14.378 L 0,-14.221 Z" />
          </g>
          <g
             transform="translate(269.2661,560.2373)"
             id="g63">
            <path
               inkscape:connector-curvature="0"
               id="path65"
               style="fill:#fff;fill-opacity:1;fill-rule:nonzero;stroke:none"
               d="M 0,0 C 0,1.157 -0.222,1.868 -0.665,2.133 -1.109,2.396 -1.414,2.527 -1.58,2.527 -1.738,2.527 -2.042,2.382 -2.488,2.093 -2.937,1.803 -3.16,1.315 -3.16,0.632 V -4.74 c 0,-1.791 0.204,-3.595 0.611,-5.412 0.407,-1.817 0.895,-3.661 1.461,-5.53 0.567,-1.87 1.167,-3.726 1.799,-5.569 0.632,-1.845 1.211,-3.687 1.738,-5.53 0.526,-1.845 0.935,-3.45 1.225,-4.82 0.289,-1.37 0.514,-2.606 0.671,-3.712 0.158,-1.106 0.263,-2.121 0.316,-3.041 0.052,-0.923 0.105,-1.832 0.158,-2.726 v -5.689 c 0,-1.37 -0.172,-2.606 -0.513,-3.712 -0.343,-1.107 -0.778,-2.042 -1.304,-2.805 -0.527,-0.764 -1.106,-1.357 -1.738,-1.777 -0.632,-0.422 -1.264,-0.632 -1.896,-0.632 -0.473,0 -0.922,0.051 -1.343,0.158 -0.369,0.104 -0.751,0.236 -1.145,0.394 -0.396,0.159 -0.725,0.396 -0.988,0.711 l -0.711,-0.79 -3.476,-0.079 0.079,21.409 4.266,0.238 v -10.903 -1.501 c 0,-0.738 0.054,-1.474 0.162,-2.212 0.107,-0.738 0.295,-1.395 0.564,-1.974 0.269,-0.58 0.672,-0.869 1.21,-0.869 0.539,0 0.943,0.262 1.211,0.79 0.27,0.525 0.444,1.197 0.524,2.014 0.081,0.816 0.107,1.711 0.082,2.686 -0.028,0.974 -0.04,1.883 -0.04,2.726 0,1.738 -0.349,4.041 -1.048,6.912 -0.698,2.87 -1.693,6.596 -2.981,11.178 -0.631,2.264 -1.199,4.306 -1.699,6.123 -0.501,1.817 -0.908,3.489 -1.223,5.017 -0.317,1.526 -0.554,2.962 -0.712,4.305 -0.158,1.343 -0.237,2.725 -0.237,4.147 v 0.514 0.632 c 0,0.289 0.012,0.723 0.039,1.303 0.027,0.579 0.066,1.422 0.119,2.529 0.052,1.526 0.277,2.816 0.671,3.871 0.396,1.053 0.87,1.895 1.422,2.527 0.554,0.633 1.127,1.079 1.723,1.344 0.595,0.263 1.113,0.394 1.557,0.394 C -2.211,7.847 -1.842,7.768 -1.501,7.662 -1.249,7.557 -0.958,7.412 -0.63,7.229 -0.301,7.043 0.041,6.74 0.396,6.319 L 0.948,7.505 3.871,7.426 V -14.378 L 0,-14.221 Z" />
          </g>
          <g
             transform="translate(344.4746,568.1367)"
             id="g67">
            <path
               inkscape:connector-curvature="0"
               id="path69"
               style="fill:#fff;fill-opacity:1;fill-rule:nonzero;stroke:none"
               d="m 0,0 0.156,-4.266 h -1.025 l -0.158,-54.668 h 2.685 v 17.222 H 5.607 V -63.595 H -8.611 v 4.741 h 1.658 v 54.509 h -1.58 V 0 Z" />
          </g>
          <g
             transform="translate(368.7246,521.9219)"
             id="g71">
            <path
               inkscape:connector-curvature="0"
               id="path73"
               style="fill:#fff;fill-opacity:1;fill-rule:nonzero;stroke:none"
               d="M 0,0 -0.711,19.829 H -1.105 L -2.527,0 Z m 8.139,-12.798 v -4.582 h -9.403 v 4.582 h 1.66 l -0.238,8.374 h -3.002 l -0.552,-8.374 h 1.421 l -0.078,-4.582 h -7.506 l 0.08,4.582 h 1.659 l 4.582,59.013 H 2.529 L 6.4,-12.798 Z" />
          </g>
          <g
             transform="translate(386.2637,504.542)"
             id="g75">
            <path
               inkscape:connector-curvature="0"
               id="path77"
               style="fill:#fff;fill-opacity:1;fill-rule:nonzero;stroke:none"
               d="m 0,0 0.078,4.819 1.264,0.316 -0.078,53.957 -1.502,0.079 -0.078,4.266 7.267,0.079 3.713,-26.386 0.316,-0.474 -0.158,22.515 -1.027,0.158 -0.158,4.266 h 6.636 V 59.487 L 15.246,59.171 15.324,0.315 H 10.9 L 5.766,34.602 5.293,34.997 5.846,5.056 7.338,4.74 7.504,0.237 Z" />
          </g>
          <g
             transform="translate(420.9434,561.501)"
             id="g79">
            <path
               inkscape:connector-curvature="0"
               id="path81"
               style="fill:#fff;fill-opacity:1;fill-rule:nonzero;stroke:none"
               d="m 0,0 c 0,0.474 -0.107,0.869 -0.316,1.185 -0.159,0.263 -0.395,0.486 -0.711,0.671 -0.317,0.184 -0.764,0.198 -1.344,0.04 v -54.589 c 0.58,-0.106 1.027,-0.028 1.344,0.237 0.316,0.263 0.552,0.579 0.711,0.948 0.209,0.421 0.316,0.895 0.316,1.422 z m 6.398,-1.264 c 0,-0.79 0.012,-2.397 0.04,-4.819 0.027,-2.423 0.052,-5.241 0.08,-8.453 0.025,-3.213 0.05,-6.61 0.078,-10.192 0.025,-3.582 0.052,-6.939 0.08,-10.072 0.025,-3.134 0.051,-5.859 0.078,-8.177 0.025,-2.317 0.039,-3.792 0.039,-4.423 0,-0.948 -0.117,-1.989 -0.355,-3.121 -0.237,-1.132 -0.659,-2.172 -1.264,-3.12 -0.606,-0.948 -1.422,-1.738 -2.449,-2.37 -1.028,-0.633 -2.305,-0.948 -3.83,-0.948 h -8.612 v 4.582 h 1.58 V 1.975 h -1.66 v 4.661 h 9.244 c 2,0 3.66,-0.698 4.977,-2.094 C 5.74,3.146 6.398,1.211 6.398,-1.264" />
          </g>
          <g
             transform="translate(446.5391,560.2373)"
             id="g83">
            <path
               inkscape:connector-curvature="0"
               id="path85"
               style="fill:#fff;fill-opacity:1;fill-rule:nonzero;stroke:none"
               d="M 0,0 C 0,1.157 -0.223,1.868 -0.666,2.133 -1.109,2.396 -1.414,2.527 -1.58,2.527 -1.738,2.527 -2.043,2.382 -2.488,2.093 -2.938,1.803 -3.16,1.315 -3.16,0.632 V -4.74 c 0,-1.791 0.203,-3.595 0.611,-5.412 0.406,-1.817 0.895,-3.661 1.461,-5.53 0.567,-1.87 1.166,-3.726 1.799,-5.569 0.631,-1.845 1.211,-3.687 1.738,-5.53 0.526,-1.845 0.934,-3.45 1.225,-4.82 0.289,-1.37 0.514,-2.606 0.67,-3.712 0.158,-1.106 0.263,-2.121 0.316,-3.041 0.053,-0.923 0.106,-1.832 0.158,-2.726 v -5.689 c 0,-1.37 -0.172,-2.606 -0.513,-3.712 -0.342,-1.107 -0.778,-2.042 -1.303,-2.805 -0.527,-0.764 -1.106,-1.357 -1.738,-1.777 -0.633,-0.422 -1.264,-0.632 -1.897,-0.632 -0.472,0 -0.922,0.051 -1.342,0.158 -0.369,0.104 -0.752,0.236 -1.146,0.394 -0.395,0.159 -0.725,0.396 -0.988,0.711 l -0.711,-0.79 -3.475,-0.079 0.078,21.409 4.266,0.238 v -10.903 -1.501 c 0,-0.738 0.055,-1.474 0.162,-2.212 0.107,-0.738 0.295,-1.395 0.564,-1.974 0.27,-0.58 0.672,-0.869 1.211,-0.869 0.539,0 0.942,0.262 1.211,0.79 0.27,0.525 0.444,1.197 0.524,2.014 0.08,0.816 0.107,1.711 0.082,2.686 -0.028,0.974 -0.041,1.883 -0.041,2.726 0,1.738 -0.348,4.041 -1.047,6.912 -0.699,2.87 -1.694,6.596 -2.981,11.178 -0.632,2.264 -1.199,4.306 -1.699,6.123 -0.502,1.817 -0.908,3.489 -1.224,5.017 -0.317,1.526 -0.553,2.975 -0.711,4.345 -0.159,1.369 -0.237,2.737 -0.237,4.107 v 0.514 0.632 c 0,0.289 0.012,0.723 0.039,1.303 0.026,0.579 0.065,1.422 0.119,2.529 0.051,1.526 0.276,2.816 0.67,3.871 0.397,1.053 0.87,1.895 1.422,2.527 0.555,0.633 1.127,1.079 1.723,1.344 0.596,0.263 1.113,0.394 1.557,0.394 0.396,-0.052 0.765,-0.131 1.105,-0.237 0.252,-0.105 0.543,-0.25 0.871,-0.433 0.33,-0.186 0.672,-0.489 1.026,-0.91 L 0.947,7.505 3.871,7.426 V -14.378 L 0,-14.221 Z" />
          </g>
          <g
             transform="translate(226.7427,481.2261)"
             id="g87">
            <path
               inkscape:connector-curvature="0"
               id="path89"
               style="fill:#fff;fill-opacity:1;fill-rule:nonzero;stroke:none"
               d="m 0,0 v -2.893 h 0.539 c 0.893,0 1.494,0.111 1.805,0.337 0.312,0.226 0.467,0.552 0.467,0.983 0,0.486 -0.183,0.869 -0.547,1.152 C 1.9,-0.142 1.293,0 0.445,0 Z M 0,4.299 V 1.92 h 0.472 c 0.523,0 0.912,0.11 1.165,0.33 C 1.892,2.47 2.02,2.769 2.02,3.148 2.02,3.5 1.9,3.781 1.657,3.989 1.416,4.196 1.048,4.299 0.556,4.299 Z M -2.148,-4.943 V 6.348 h 1.774 c 1.03,0 1.784,-0.064 2.26,-0.197 C 2.562,5.97 3.101,5.638 3.5,5.151 3.901,4.666 4.098,4.092 4.098,3.431 4.098,3.002 4.01,2.612 3.827,2.261 3.646,1.911 3.35,1.582 2.94,1.273 3.625,0.952 4.128,0.548 4.445,0.066 4.764,-0.418 4.921,-0.989 4.921,-1.651 4.921,-2.286 4.758,-2.863 4.43,-3.385 4.101,-3.908 3.679,-4.296 3.161,-4.556 2.644,-4.815 1.929,-4.943 1.018,-4.943 Z" />
          </g>
          <g
             transform="translate(242.2988,483.1597)"
             id="g91">
            <path
               inkscape:connector-curvature="0"
               id="path93"
               style="fill:#fff;fill-opacity:1;fill-rule:nonzero;stroke:none"
               d="M 0,0 H 0.672 C 1.356,0 1.828,0.091 2.086,0.271 2.342,0.45 2.473,0.748 2.473,1.164 2.473,1.412 2.408,1.625 2.279,1.807 2.153,1.991 1.983,2.121 1.768,2.201 1.551,2.279 1.161,2.319 0.589,2.319 H 0 Z M -2.15,4.415 H 0.126 C 1.375,4.415 2.262,4.304 2.792,4.081 3.32,3.86 3.746,3.49 4.068,2.972 4.391,2.456 4.552,1.845 4.552,1.138 4.552,0.395 4.374,-0.226 4.018,-0.725 3.661,-1.223 3.127,-1.599 2.411,-1.855 L 5.087,-6.876 H 2.737 L 0.195,-2.095 H 0 v -4.781 h -2.15 z" />
          </g>
          <g
             transform="translate(255.4204,487.5742)"
             id="g95">
            <path
               inkscape:connector-curvature="0"
               id="path97"
               style="fill:#fff;fill-opacity:1;fill-rule:nonzero;stroke:none"
               d="M 0,0 H 6.164 V -2.103 H 2.135 V -4.144 H 6.164 V -6.208 H 2.135 v -2.973 h 4.029 v -2.11 H 0 Z" />
          </g>
          <g
             transform="translate(269.0205,487.5742)"
             id="g99">
            <path
               inkscape:connector-curvature="0"
               id="path101"
               style="fill:#fff;fill-opacity:1;fill-rule:nonzero;stroke:none"
               d="M 0,0 H 2.117 L 3.747,-7.207 5.763,0 H 7.551 L 9.595,-7.207 11.213,0 h 2.114 L 10.784,-11.291 H 8.721 l -2.081,7.3 -2.04,-7.3 H 2.56 Z" />
          </g>
          <path
             inkscape:connector-curvature="0"
             id="path103"
             style="fill:#fff;fill-opacity:1;fill-rule:nonzero;stroke:none"
             d="m 290.162,487.574 h 2.133 v -11.291 h -2.133 z" />
          <g
             transform="translate(301.0117,487.5742)"
             id="g105">
            <path
               inkscape:connector-curvature="0"
               id="path107"
               style="fill:#fff;fill-opacity:1;fill-rule:nonzero;stroke:none"
               d="M 0,0 H 2.061 L 6.893,-7.431 V 0 H 9.042 V -11.291 H 6.975 L 2.15,-3.884 v -7.407 H 0 Z" />
          </g>
          <g
             transform="translate(329.3477,485.7324)"
             id="g109">
            <path
               inkscape:connector-curvature="0"
               id="path111"
               style="fill:#fff;fill-opacity:1;fill-rule:nonzero;stroke:none"
               d="m 0,0 -1.515,-1.498 c -0.955,1.016 -2.073,1.521 -3.348,1.521 -1.113,0 -2.044,-0.369 -2.792,-1.106 -0.751,-0.737 -1.128,-1.633 -1.128,-2.686 0,-1.091 0.389,-2.014 1.17,-2.773 0.777,-0.755 1.738,-1.136 2.881,-1.136 0.742,0 1.371,0.158 1.878,0.47 0.51,0.312 0.923,0.8 1.236,1.467 H -4.89 v 2.018 h 5.683 l 0.014,-0.476 c 0,-0.988 -0.255,-1.925 -0.769,-2.811 -0.513,-0.885 -1.173,-1.559 -1.988,-2.025 -0.815,-0.465 -1.768,-0.698 -2.864,-0.698 -1.17,0 -2.217,0.253 -3.135,0.761 -0.921,0.511 -1.647,1.237 -2.182,2.179 -0.533,0.941 -0.802,1.957 -0.802,3.048 0,1.494 0.495,2.793 1.482,3.899 1.172,1.316 2.697,1.973 4.576,1.973 0.984,0 1.901,-0.181 2.757,-0.545 C -1.399,1.274 -0.689,0.748 0,0" />
          </g>
          <g
             transform="translate(359.4844,485.5898)"
             id="g113">
            <path
               inkscape:connector-curvature="0"
               id="path115"
               style="fill:#fff;fill-opacity:1;fill-rule:nonzero;stroke:none"
               d="m 0,0 -1.506,-1.432 c -1.02,1.08 -2.171,1.622 -3.447,1.622 -1.08,0 -1.989,-0.37 -2.73,-1.109 -0.738,-0.737 -1.109,-1.646 -1.109,-2.726 0,-0.754 0.165,-1.422 0.493,-2.006 0.327,-0.585 0.79,-1.043 1.389,-1.376 0.599,-0.333 1.261,-0.499 1.995,-0.499 0.62,0 1.193,0.115 1.71,0.348 0.517,0.234 1.082,0.659 1.699,1.272 l 1.458,-1.521 c -0.834,-0.814 -1.62,-1.377 -2.363,-1.692 -0.742,-0.317 -1.588,-0.472 -2.542,-0.472 -1.754,0 -3.192,0.556 -4.311,1.668 -1.117,1.114 -1.678,2.541 -1.678,4.281 0,1.126 0.256,2.127 0.767,3.001 0.506,0.876 1.237,1.58 2.188,2.112 0.949,0.533 1.968,0.799 3.066,0.799 0.933,0 1.827,-0.198 2.692,-0.59 C -1.368,1.287 -0.625,0.726 0,0" />
          </g>
          <g
             transform="translate(372.9619,485.7559)"
             id="g117">
            <path
               inkscape:connector-curvature="0"
               id="path119"
               style="fill:#fff;fill-opacity:1;fill-rule:nonzero;stroke:none"
               d="m 0,0 c -1.044,0 -1.924,-0.363 -2.637,-1.091 -0.712,-0.725 -1.067,-1.65 -1.067,-2.771 0,-1.249 0.448,-2.236 1.344,-2.963 0.7,-0.568 1.496,-0.852 2.398,-0.852 1.02,0 1.89,0.368 2.606,1.104 0.715,0.739 1.075,1.647 1.075,2.726 0,1.074 -0.361,1.987 -1.082,2.73 C 1.914,-0.372 1.034,0 0,0 m 0.023,2.104 c 1.599,0 2.972,-0.579 4.123,-1.736 1.15,-1.157 1.723,-2.566 1.723,-4.23 0,-1.648 -0.566,-3.043 -1.701,-4.184 -1.135,-1.141 -2.512,-1.711 -4.13,-1.711 -1.694,0 -3.103,0.585 -4.225,1.757 -1.122,1.172 -1.683,2.564 -1.683,4.178 0,1.078 0.263,2.071 0.783,2.978 0.525,0.905 1.241,1.622 2.156,2.152 0.913,0.53 1.898,0.796 2.954,0.796" />
          </g>
          <g
             transform="translate(388.0605,478.4688)"
             id="g121">
            <path
               inkscape:connector-curvature="0"
               id="path123"
               style="fill:#fff;fill-opacity:1;fill-rule:nonzero;stroke:none"
               d="m 0,0 c 0.335,0 0.616,-0.115 0.854,-0.347 0.233,-0.234 0.352,-0.516 0.352,-0.851 0,-0.33 -0.119,-0.614 -0.352,-0.851 C 0.616,-2.284 0.335,-2.4 0,-2.4 c -0.33,0 -0.616,0.116 -0.853,0.351 -0.235,0.237 -0.352,0.521 -0.352,0.851 0,0.335 0.117,0.617 0.352,0.851 C -0.616,-0.115 -0.33,0 0,0" />
          </g>
        </g>
      </g>
      <g
         transform="matrix(0.35277777,0,0,-0.35277777,-6.7674267,285.6594)"
         id="g125">
        <g
           clip-path="url(#clipPath131)"
           id="g127">
          <g
             transform="translate(288.9341,501.2085)"
             id="g133">
            <path
               inkscape:connector-curvature="0"
               id="path135"
               style="fill:#5f7b3c;fill-opacity:1;fill-rule:nonzero;stroke:none"
               d="M 0,0 7.917,-6.032 18.076,3.029 C 19.522,57.344 -34.825,76.456 -34.825,76.456 -3.606,52.211 1.544,25.993 0,0" />
          </g>
          <g
             transform="translate(319.6221,504.3896)"
             id="g137">
            <path
               inkscape:connector-curvature="0"
               id="path139"
               style="fill:#b9d546;fill-opacity:1;fill-rule:nonzero;stroke:none"
               d="m 0,0 c -9.663,-3.379 -18.3,-13 -18.3,-13 l 0.46,12.848 C -3.634,45.439 36.775,50.09 36.775,50.09 5.046,30.588 0.042,6.713 0,0" />
          </g>
          <g
             transform="translate(309.5801,498.8125)"
             id="g141">
            <path
               inkscape:connector-curvature="0"
               id="path143"
               style="fill:#8ca54a;fill-opacity:1;fill-rule:nonzero;stroke:none"
               d="M 0,0 C -1.439,25.838 -0.781,37.688 20.904,60.667 -11.005,46.428 -15.684,11.14 -17.049,-0.453 c 3.413,-2.503 8.791,-6.97 8.791,-6.97 0,0 4.17,4.165 8.258,7.423" />
          </g>
        </g>
      </g>
    </g>
  </g>
</svg>
