<?xml version="1.0" encoding="UTF-8" standalone="no"?>
<svg
   xmlns:dc="http://purl.org/dc/elements/1.1/"
   xmlns:cc="http://creativecommons.org/ns#"
   xmlns:rdf="http://www.w3.org/1999/02/22-rdf-syntax-ns#"
   xmlns:svg="http://www.w3.org/2000/svg"
   xmlns="http://www.w3.org/2000/svg"
   id="svg864"
   version="1.1"
   viewBox="0 0 210 297"
   height="297mm"
   width="210mm">
  <g
     id="layer1">
    <path
       d="M 56.3367,277.12522 C 51.248402,276.91215 50.418448,272.13275 49.219867,266.5688 45.893054,238.75186 35.779135,137.13083 30.664117,94.970425 25.549366,52.81002 21.258863,12.809072 21.258863,12.809072 c 0,0 5.203651,-0.02573 85.570327,-0.02573 h 85.48676 l -0.9041,5.926942 c -0.49733,3.259925 -7.31904,59.625278 -15.15912,125.256136 -7.84034,65.6311 -14.65539,121.7202 -15.14473,124.64239 -0.48934,2.92244 -2.45477,8.61552 -8.67335,8.68716 -22.34273,0.32139 -49.30012,0.78822 -96.09795,-0.17075 z M 182.87473,21.06397 106.81586,20.685994 c -53.514158,-0.26594 -77.571013,0.518907 -77.571013,1.672889 0,3.054839 0.864501,30.246021 7.661635,35.085907 6.797134,4.839885 130.003778,3.057484 136.196008,-1.365427 7.64507,-9.043662 7.58673,-23.600172 9.77224,-35.015393 z"
       style="fill:#fc5;stroke-width:1.58051836"
       id="path189" />
  </g>
</svg>
